<svg width="400" height="400" viewBox="0 0 400 400" fill="#3070b8" xmlns="http://www.w3.org/2000/svg">
  <style>
    @media (prefers-color-scheme: dark) {
      .a {
        fill: #fafaff;
      }
    }
  </style>
  <path d="M150.5 82.5H249.5C266.148 113.124 283.317 143.462 301 173.5C301.635 175.635 301.301 177.635 300 179.5L286 203.5C268.297 172.591 250.463 141.758 232.5 111C199.829 110.833 167.161 110.333 134.5 109.5C139.86 100.483 145.194 91.483 150.5 82.5ZM117.5 139.5C128.34 138.176 139.34 138.176 150.5 139.5C150.376 140.107 150.043 140.44 149.5 140.5C139.013 139.506 128.346 139.172 117.5 139.5Z" />
  <path d="M117.5 139.5C128.346 139.172 139.013 139.506 149.5 140.5C131.646 170.87 114.31 201.541 97.5 232.5C112.841 259.851 128.174 287.184 143.5 314.5C139.03 315.486 134.363 315.819 129.5 315.5H111.5C96.4952 287.628 80.8241 260.12 64.5 233C81.7695 201.61 99.4376 170.441 117.5 139.5V139.5Z" />
  <path class="a" d="M183.5 138.5C194.505 138.334 205.505 138.5 216.5 139C234.557 169.608 252.225 200.444 269.5 231.5C264.582 241.064 259.243 250.407 253.5 259.5C217.512 260.667 181.498 260.833 145.5 260C139.341 250.509 134.175 240.676 130 230.5C147.57 199.681 165.404 169.013 183.5 138.5V138.5Z" fill="#00002d"/>
  <path d="M334.5 230.5V232.5C317.644 260.192 301.308 288.197 285.5 316.5H176.5C172.157 306.99 167.144 297.8 161.5 289C197.505 288.833 233.505 288.333 269.5 287.5C285.461 259.714 301.628 232.046 318 204.5C323.742 213.011 329.244 221.681 334.5 230.5V230.5ZM143.5 314.5C144.338 314.842 144.672 315.508 144.5 316.5H129.5V315.5C134.363 315.819 139.03 315.486 143.5 314.5Z" />
</svg>
